<svg width="1440" height="3086" viewBox="0 0 1440 3086" fill="none" xmlns="http://www.w3.org/2000/svg">
<path d="M209.698 2232.09C181.288 2072.34 353.029 1714.85 505.858 1511.16C681.982 1276.44 790.443 1302.7 911.044 1087.47C1021.11 891.088 986.995 768.819 1070.04 630.238C1146.36 502.883 1301.56 395.223 1639.76 442.558" stroke="url(#paint0_linear_2596_1161)" stroke-opacity="0.1" stroke-width="2" stroke-miterlimit="10"/>
<path d="M1635.36 476.143C1301.56 430.153 1145.32 535.281 1066.73 661.191C1008.5 754.587 1004.72 841.425 971.99 949.47C955.901 1004.06 932.104 1060.29 902.736 1113.09C806.568 1286.13 719.419 1307.95 595.226 1434.44C563.541 1466.6 532.215 1503.02 501.894 1542.95C347.665 1745.35 174.075 2088.58 197.587 2247.73" stroke="url(#paint1_linear_2596_1161)" stroke-opacity="0.1" stroke-width="2" stroke-miterlimit="10"/>
<path d="M1630.93 509.682C1301.52 465.065 1144.33 567.586 1063.64 691.841C1004.33 783.184 998.175 869.326 964.552 975.332C947.594 1029.92 923.694 1085.68 894.673 1138.36C800.22 1309.8 715.427 1337.94 591.307 1466.25C559.743 1498.8 528.527 1535.06 498.157 1574.44C342.662 1776.02 167.079 2104.52 185.693 2263.06" stroke="url(#paint2_linear_2596_1161)" stroke-opacity="0.1" stroke-width="2" stroke-miterlimit="10"/>
<path d="M1626.5 543.092C1301.57 499.854 1143.35 599.894 1060.45 722.56C1000.02 811.962 991.574 897.228 956.989 1001.32C939.211 1055.81 915.233 1111.09 886.583 1163.62C793.747 1333.6 711.526 1367.74 587.361 1498.06C555.884 1530.96 524.734 1567.08 494.294 1605.97C337.465 1806.44 159.981 2120.45 173.696 2278.38" stroke="url(#paint3_linear_2596_1161)" stroke-opacity="0.1" stroke-width="2" stroke-miterlimit="10"/>
<path d="M1622.11 576.597C1301.57 534.676 1142.45 632.149 1057.25 753.329C995.784 840.715 984.922 925.273 949.374 1027.35C930.761 1081.78 906.657 1136.66 878.326 1189.12C787.105 1357.64 707.389 1397.9 583.123 1530.28C551.815 1563.51 520.806 1599.43 490.37 1637.73C332.182 1837.14 152.805 2136.68 161.596 2294.05" stroke="url(#paint4_linear_2596_1161)" stroke-opacity="0.1" stroke-width="2" stroke-miterlimit="10"/>
<path d="M1617.81 609.843C1301.58 569.394 1140.64 662.223 1054.04 784.015C992.194 870.887 978.205 953.1 941.81 1053.28C922.362 1107.6 898.134 1162.08 870.135 1214.46C780.53 1381.52 703.369 1427.85 579.183 1562.07C548 1595.6 517.081 1631.37 486.619 1669.14C327.038 1867.39 145.793 2152.54 149.691 2309.33" stroke="url(#paint5_linear_2596_1161)" stroke-opacity="0.1" stroke-width="2" stroke-miterlimit="10"/>
<path d="M1613.28 643.347C1301.59 604.13 1140.68 696.656 1050.81 814.52C987.443 898.053 971.494 981.1 934.235 1079.23C913.979 1133.4 889.624 1187.5 861.957 1239.8C773.967 1405.4 699.278 1457.87 575.147 1593.97C544.096 1627.84 513.27 1663.46 482.789 1700.7C321.848 1897.9 138.676 2168.51 137.697 2324.76" stroke="url(#paint6_linear_2596_1161)" stroke-opacity="0.1" stroke-width="2" stroke-miterlimit="10"/>
<path d="M1608.88 676.687C1301.66 638.745 1139.78 728.734 1047.65 845.311C983.261 926.673 964.656 1008.96 926.641 1105.14C905.592 1159.11 881.097 1212.84 853.745 1265.05C767.402 1429.19 695.202 1487.83 571.076 1625.79C542.205 1657.92 511.563 1692.71 478.916 1732.15C316.565 1928.26 131.583 2184.54 125.687 2340.15" stroke="url(#paint7_linear_2596_1161)" stroke-opacity="0.1" stroke-width="2" stroke-miterlimit="10"/>
<path d="M1604.47 709.92C1301.61 673.457 1138.97 760.978 1044.45 875.806C979.091 955.239 957.805 1036.81 918.993 1131.03C897.146 1184.78 872.504 1238.19 845.476 1290.37C760.747 1453.06 691.06 1517.76 566.956 1657.71C538.061 1690.29 507.51 1725.03 474.968 1763.76C311.439 1958.5 124.481 2200.51 113.673 2355.5" stroke="url(#paint8_linear_2596_1161)" stroke-opacity="0.1" stroke-width="2" stroke-miterlimit="10"/>
<path d="M1600.03 743.137C1301.61 708.054 1138.15 793.153 1041.27 906.426C974.968 983.921 950.843 1064.85 911.49 1156.79C888.879 1210.27 864.096 1263.37 837.403 1315.51C754.263 1476.78 687.08 1547.61 562.963 1689.38C534.169 1722.23 503.592 1757.01 471.164 1795.04C306.042 1988.81 117.324 2216.34 101.622 2370.76" stroke="url(#paint9_linear_2596_1161)" stroke-opacity="0.1" stroke-width="2" stroke-miterlimit="10"/>
<path d="M1595.63 776.266C1301.63 742.548 1137.34 825.312 1038.14 936.819C970.908 1012.4 944.027 1092.5 903.968 1182.54C880.585 1235.71 855.637 1288.51 829.268 1340.62C747.765 1500.41 683.077 1577.35 559.007 1721.2C530.205 1754.54 499.695 1789.2 467.413 1826.53C300.872 2019.1 110.336 2232.3 89.6813 2386.19" stroke="url(#paint10_linear_2596_1161)" stroke-opacity="0.1" stroke-width="2" stroke-miterlimit="10"/>
<path d="M1591.22 809.333C1301.64 777.043 1136.49 857.486 1034.88 967.332C966.709 1041.06 937.03 1120.33 896.363 1208.32C872.982 1258.89 848.972 1310.48 821.034 1365.83C741.135 1524.15 678.958 1607.25 554.908 1753C526.14 1786.75 495.67 1821.33 463.461 1858.05C295.5 2049.42 103.123 2248.33 77.5978 2401.62" stroke="url(#paint11_linear_2596_1161)" stroke-opacity="0.1" stroke-width="2" stroke-miterlimit="10"/>
<path d="M1586.82 842.319C1301.67 811.533 1135.82 889.403 1031.71 997.705C962.582 1069.56 930.014 1148.05 888.781 1234.01C864.451 1284.74 840.231 1336.07 812.846 1390.92C734.585 1547.86 674.9 1636.97 550.853 1784.7C522.127 1818.87 491.674 1853.4 459.653 1889.33C290.281 2079.43 96.0556 2264.14 65.6338 2416.86" stroke="url(#paint12_linear_2596_1161)" stroke-opacity="0.1" stroke-width="2" stroke-miterlimit="10"/>
<path d="M1582.46 875.166C1301.67 845.763 1134.9 921.651 1028.54 1028.02C958.484 1098.07 922.992 1175.7 881.21 1259.68C855.89 1310.55 831.493 1361.61 804.769 1415.85C728.068 1571.32 670.958 1666.56 546.814 1816.4C518.089 1850.99 487.701 1885.41 455.811 1920.69C284.984 2109.52 88.9372 2280 53.6189 2432.16" stroke="url(#paint13_linear_2596_1161)" stroke-opacity="0.1" stroke-width="2" stroke-miterlimit="10"/>
<path d="M1577.97 908.034C1301.67 879.98 1134.16 953.603 1025.34 1058.25C954.319 1126.51 915.921 1203.23 873.648 1285.17C847.328 1336.17 822.72 1387.08 796.475 1440.92C721.434 1594.88 666.765 1696.31 542.747 1847.96C512.744 1884.24 482.418 1918.93 451.89 1951.87C279.701 2139.49 81.7594 2295.95 41.5934 2447.38" stroke="url(#paint14_linear_2596_1161)" stroke-opacity="0.1" stroke-width="2" stroke-miterlimit="10"/>
<path d="M1573.56 940.726C1301.68 914.129 1133.21 985.672 1022.24 1088.26C950.267 1154.77 908.92 1230.56 866.048 1310.7C838.721 1361.8 813.952 1412.49 788.293 1465.82C714.836 1618.38 662.689 1725.91 538.738 1879.43C508.886 1916.03 478.611 1950.66 448.102 1983.07C274.367 2169.28 74.7155 2311.62 29.519 2462.55" stroke="url(#paint15_linear_2596_1161)" stroke-opacity="0.1" stroke-width="2" stroke-miterlimit="10"/>
<path d="M1569.15 973.294C1301.7 948.107 1132.31 1017.79 1018.97 1118.41C946.107 1183.14 901.754 1257.95 858.49 1336.04C830.146 1387.23 805.241 1437.77 780.134 1490.6C708.31 1641.69 658.625 1755.38 534.624 1910.96C504.913 1947.86 474.675 1982.4 444.183 2014.28C269.11 2199.15 67.6007 2327.38 17.5311 2477.84" stroke="url(#paint16_linear_2596_1161)" stroke-opacity="0.1" stroke-width="2" stroke-miterlimit="10"/>
<path d="M1564.69 1002.81C1301.78 979.441 1131.63 1047 1015.84 1146.03C941.955 1209.2 894.676 1282.95 850.959 1359.22C821.475 1410.63 796.499 1460.96 771.944 1513.36C701.685 1663.09 654.512 1783.01 530.492 1940.77C500.915 1977.99 470.708 2012.5 440.235 2043.88C263.717 2227.62 60.3865 2342.07 5.38999 2492.08" stroke="url(#paint17_linear_2596_1161)" stroke-opacity="0.1" stroke-width="2" stroke-miterlimit="10"/>
<path d="M1560.26 1032.08C1301.9 1010.14 1130.81 1076.19 1012.71 1173.5C937.858 1235.09 887.639 1307.75 843.445 1382.35C813.02 1433.82 787.759 1484.17 763.797 1536.04C695.136 1684.5 650.411 1810.61 526.369 1970.45C496.928 2007.99 466.746 2042.48 436.296 2073.37C258.323 2255.97 53.0949 2356.9 -6.72646 2506.27" stroke="url(#paint18_linear_2596_1161)" stroke-opacity="0.1" stroke-width="2" stroke-miterlimit="10"/>
<path d="M1555.83 1061.22C1301.82 1041.1 1129.95 1105.24 1009.53 1200.6C933.657 1260.66 880.506 1332.15 835.821 1405.04C804.305 1456.47 778.982 1506.85 755.555 1558.34C688.502 1705.47 646.23 1837.8 522.18 1999.87C492.878 2037.74 462.715 2072.21 432.29 2102.59C252.861 2283.95 45.9315 2370.96 -18.9183 2520.15" stroke="url(#paint19_linear_2596_1161)" stroke-opacity="0.1" stroke-width="2" stroke-miterlimit="10"/>
<path d="M1551.36 1090.36C1301.82 1071.84 1129.12 1134.32 1006.44 1227.58C929.583 1286.12 873.512 1356.38 828.361 1427.62C795.764 1479.04 770.314 1529.46 747.44 1580.42C681.953 1726.3 642.14 1864.87 518.08 2029.09C488.905 2067.27 458.751 2101.73 428.348 2131.64C247.522 2311.39 38.7964 2385.09 -31.037 2533.94" stroke="url(#paint20_linear_2596_1161)" stroke-opacity="0.1" stroke-width="2" stroke-miterlimit="10"/>
<path d="M1546.95 1119.43C1149.18 1091.86 939.599 1268.83 820.667 1450.41C690.836 1648.63 681.251 1833.96 513.796 2058.57C317.348 2322.02 44.1133 2374.2 -43.2525 2547.78" stroke="url(#paint21_linear_2596_1161)" stroke-opacity="0.1" stroke-width="2" stroke-miterlimit="10"/>
<defs>
<linearGradient id="paint0_linear_2596_1161" x1="798.534" y1="993.282" x2="1078.09" y2="1200.46" gradientUnits="userSpaceOnUse">
<stop stop-color="#155ADA"/>
<stop offset="1" stop-color="#0B743B"/>
</linearGradient>
<linearGradient id="paint1_linear_2596_1161" x1="793.736" y1="1027.31" x2="1073.33" y2="1234.52" gradientUnits="userSpaceOnUse">
<stop stop-color="#155ADA"/>
<stop offset="1" stop-color="#0B743B"/>
</linearGradient>
<linearGradient id="paint2_linear_2596_1161" x1="788.992" y1="1061.08" x2="1068.68" y2="1268.35" gradientUnits="userSpaceOnUse">
<stop stop-color="#155ADA"/>
<stop offset="1" stop-color="#0B743B"/>
</linearGradient>
<linearGradient id="paint3_linear_2596_1161" x1="784.167" y1="1094.68" x2="1064.02" y2="1302.08" gradientUnits="userSpaceOnUse">
<stop stop-color="#155ADA"/>
<stop offset="1" stop-color="#0B743B"/>
</linearGradient>
<linearGradient id="paint4_linear_2596_1161" x1="779.226" y1="1128.26" x2="1059.41" y2="1335.9" gradientUnits="userSpaceOnUse">
<stop stop-color="#155ADA"/>
<stop offset="1" stop-color="#0B743B"/>
</linearGradient>
<linearGradient id="paint5_linear_2596_1161" x1="774.344" y1="1161.31" x2="1055.02" y2="1369.3" gradientUnits="userSpaceOnUse">
<stop stop-color="#155ADA"/>
<stop offset="1" stop-color="#0B743B"/>
</linearGradient>
<linearGradient id="paint6_linear_2596_1161" x1="769.262" y1="1194.43" x2="1050.5" y2="1402.83" gradientUnits="userSpaceOnUse">
<stop stop-color="#155ADA"/>
<stop offset="1" stop-color="#0B743B"/>
</linearGradient>
<linearGradient id="paint7_linear_2596_1161" x1="764.23" y1="1227.44" x2="1046.06" y2="1436.26" gradientUnits="userSpaceOnUse">
<stop stop-color="#155ADA"/>
<stop offset="1" stop-color="#0B743B"/>
</linearGradient>
<linearGradient id="paint8_linear_2596_1161" x1="759.068" y1="1260.02" x2="1041.74" y2="1469.45" gradientUnits="userSpaceOnUse">
<stop stop-color="#155ADA"/>
<stop offset="1" stop-color="#0B743B"/>
</linearGradient>
<linearGradient id="paint9_linear_2596_1161" x1="753.858" y1="1292.52" x2="1037.41" y2="1502.58" gradientUnits="userSpaceOnUse">
<stop stop-color="#155ADA"/>
<stop offset="1" stop-color="#0B743B"/>
</linearGradient>
<linearGradient id="paint10_linear_2596_1161" x1="748.571" y1="1324.64" x2="1033.23" y2="1535.5" gradientUnits="userSpaceOnUse">
<stop stop-color="#155ADA"/>
<stop offset="1" stop-color="#0B743B"/>
</linearGradient>
<linearGradient id="paint11_linear_2596_1161" x1="743.146" y1="1356.55" x2="1029.08" y2="1568.33" gradientUnits="userSpaceOnUse">
<stop stop-color="#155ADA"/>
<stop offset="1" stop-color="#0B743B"/>
</linearGradient>
<linearGradient id="paint12_linear_2596_1161" x1="737.681" y1="1388.06" x2="1025.08" y2="1600.89" gradientUnits="userSpaceOnUse">
<stop stop-color="#155ADA"/>
<stop offset="1" stop-color="#0B743B"/>
</linearGradient>
<linearGradient id="paint13_linear_2596_1161" x1="732.111" y1="1419.24" x2="1021.17" y2="1633.26" gradientUnits="userSpaceOnUse">
<stop stop-color="#155ADA"/>
<stop offset="1" stop-color="#0B743B"/>
</linearGradient>
<linearGradient id="paint14_linear_2596_1161" x1="726.333" y1="1450.02" x2="1017.32" y2="1665.42" gradientUnits="userSpaceOnUse">
<stop stop-color="#155ADA"/>
<stop offset="1" stop-color="#0B743B"/>
</linearGradient>
<linearGradient id="paint15_linear_2596_1161" x1="720.436" y1="1480.3" x2="1013.65" y2="1697.3" gradientUnits="userSpaceOnUse">
<stop stop-color="#155ADA"/>
<stop offset="1" stop-color="#0B743B"/>
</linearGradient>
<linearGradient id="paint16_linear_2596_1161" x1="714.383" y1="1510.04" x2="1010.15" y2="1728.86" gradientUnits="userSpaceOnUse">
<stop stop-color="#155ADA"/>
<stop offset="1" stop-color="#0B743B"/>
</linearGradient>
<linearGradient id="paint17_linear_2596_1161" x1="704.198" y1="1526.56" x2="1010.44" y2="1752.86" gradientUnits="userSpaceOnUse">
<stop stop-color="#155ADA"/>
<stop offset="1" stop-color="#0B743B"/>
</linearGradient>
<linearGradient id="paint18_linear_2596_1161" x1="693.657" y1="1541.86" x2="1011.11" y2="1776.15" gradientUnits="userSpaceOnUse">
<stop stop-color="#155ADA"/>
<stop offset="1" stop-color="#0B743B"/>
</linearGradient>
<linearGradient id="paint19_linear_2596_1161" x1="682.851" y1="1556.29" x2="1012.05" y2="1798.94" gradientUnits="userSpaceOnUse">
<stop stop-color="#155ADA"/>
<stop offset="1" stop-color="#0B743B"/>
</linearGradient>
<linearGradient id="paint20_linear_2596_1161" x1="671.93" y1="1570.27" x2="1013.14" y2="1821.46" gradientUnits="userSpaceOnUse">
<stop stop-color="#155ADA"/>
<stop offset="1" stop-color="#0B743B"/>
</linearGradient>
<linearGradient id="paint21_linear_2596_1161" x1="660.853" y1="1583.84" x2="1014.38" y2="1843.77" gradientUnits="userSpaceOnUse">
<stop stop-color="#155ADA"/>
<stop offset="1" stop-color="#0B743B"/>
</linearGradient>
</defs>
</svg>
